<svg width="200" height="54" viewBox="0 0 200 54" fill="none" xmlns="http://www.w3.org/2000/svg">
<g clip-path="url(#clip0_2_50)">
<path d="M13.8117 44.9862C11.45 42.8327 10.7606 38.308 11.7445 35.03C13.4506 37.0967 15.8145 37.7514 18.2631 38.121C22.0431 38.6913 25.7554 38.478 29.2669 36.7545C29.6686 36.5572 30.0398 36.2949 30.4788 36.0292C30.8083 36.9826 30.894 37.9453 30.779 38.9251C30.4991 41.3112 29.3087 43.1544 27.4152 44.5516C26.6582 45.1105 25.857 45.6101 25.075 46.1371C22.6727 47.7567 22.0228 49.6558 22.9255 52.4183C22.9469 52.4856 22.9661 52.5529 23.0146 52.7171C21.7881 52.1696 20.8922 51.3724 20.2095 50.3242C19.4885 49.2178 19.1455 47.9939 19.1274 46.6697C19.1184 46.0253 19.1184 45.3751 19.0315 44.7399C18.8194 43.1909 18.0905 42.4975 16.7172 42.4575C15.3079 42.4165 14.1931 43.2856 13.8974 44.6543C13.8748 44.7592 13.8422 44.863 13.8094 44.985L13.8117 44.9862Z" fill="white"/>
<path d="M0.332275 34.4838C0.332275 34.4838 7.32556 31.0855 14.3385 31.0855L19.6259 14.7625C19.8238 13.9731 20.4018 13.4367 21.0543 13.4367C21.7069 13.4367 22.2848 13.9731 22.4828 14.7625L27.7703 31.0855C36.0759 31.0855 41.7764 34.4838 41.7764 34.4838C41.7764 34.4838 29.8977 2.20439 29.8745 2.13962C29.5335 1.18527 28.958 0.570618 28.182 0.570618H13.9278C13.1519 0.570618 12.5996 1.18527 12.2354 2.13962C12.2098 2.20316 0.332275 34.4838 0.332275 34.4838Z" fill="white"/>
<path d="M74.0644 29.7834C74.0644 32.6437 70.4976 34.352 65.5592 34.352C62.3452 34.352 61.2085 33.5575 61.2085 31.8889C61.2085 30.1409 62.6196 29.3066 65.8336 29.3066C68.7342 29.3066 71.2033 29.3464 74.0644 29.7039V29.7834ZM74.1036 26.2476C72.3402 25.8504 69.6751 25.612 66.4996 25.612C57.2499 25.612 52.8992 27.797 52.8992 32.8821C52.8992 38.1658 55.878 40.1919 62.7764 40.1919C68.6166 40.1919 72.5754 38.722 74.0252 35.1068H74.2604C74.2212 35.9808 74.182 36.8548 74.182 37.5301C74.182 39.3973 74.4957 39.5563 76.0246 39.5563H83.2365C82.8445 38.4439 82.6093 35.3054 82.6093 32.604C82.6093 29.7039 82.7269 27.5189 82.7269 24.5791C82.7269 18.5802 79.1209 14.7665 67.8325 14.7665C62.9723 14.7665 57.5634 15.6007 53.4479 16.8323C53.8398 18.4611 54.3886 21.7585 54.663 23.9037C58.2297 22.2352 63.2859 21.5201 67.2053 21.5201C72.6146 21.5201 74.1036 22.7516 74.1036 25.2545V26.2476Z" fill="white"/>
<path d="M93.8923 31.4519C92.9123 31.5711 91.5801 31.5711 90.208 31.5711C88.7575 31.5711 87.4252 31.5314 86.5236 31.4121C86.5236 31.73 86.4844 32.0876 86.4844 32.4054C86.4844 37.3713 89.7375 40.2714 101.183 40.2714C111.961 40.2714 115.45 37.411 115.45 32.3656C115.45 27.5984 113.138 25.2545 102.907 24.738C94.9508 24.3805 94.2452 23.5064 94.2452 22.5133C94.2452 21.3612 95.2644 20.7653 100.595 20.7653C106.122 20.7653 107.611 21.5201 107.611 23.1092V23.4667C108.395 23.427 109.806 23.3873 111.256 23.3873C112.628 23.3873 114.117 23.427 114.979 23.5064C114.979 23.1489 115.019 22.8311 115.019 22.553C115.019 16.7131 110.158 14.8062 100.751 14.8062C90.1688 14.8062 86.602 17.3885 86.602 22.4338C86.602 26.9627 89.4631 29.7834 99.6146 30.2204C107.101 30.4587 107.924 31.293 107.924 32.4451C107.924 33.6766 106.709 34.2328 101.457 34.2328C95.4213 34.2328 93.8923 33.3985 93.8923 31.6903V31.4519Z" fill="white"/>
<path d="M128.387 10.5157C125.526 13.1774 120.391 15.8391 117.53 16.5542C117.569 18.0241 117.569 20.7256 117.569 22.1955L120.195 22.2352C120.155 25.0558 120.116 28.4723 120.116 30.7368C120.116 36.0205 122.899 39.9933 131.561 39.9933C135.207 39.9933 137.637 39.596 140.654 38.9603C140.341 37.0137 139.989 34.0341 139.871 31.7697C138.068 32.3656 135.795 32.6834 133.286 32.6834C129.797 32.6834 128.387 31.73 128.387 28.9888C128.387 26.6052 128.387 24.3805 128.426 22.3147C132.894 22.3543 137.362 22.4338 139.989 22.5133C139.949 20.4475 140.028 17.4679 140.145 15.4816C136.343 15.561 132.071 15.6007 128.543 15.6007C128.583 13.8527 128.622 12.1842 128.661 10.5157H128.387Z" fill="white"/>
<path d="M151.797 21.0036C151.836 18.9378 151.875 17.1898 151.914 15.4816H144.036C144.153 18.8981 144.153 22.3941 144.153 27.5189C144.153 32.6437 144.114 36.1795 144.036 39.5563H153.051C152.894 37.1726 152.854 33.1602 152.854 29.7436C152.854 24.3407 155.05 22.7914 160.027 22.7914C162.34 22.7914 163.986 23.0695 165.437 23.5859C165.476 21.5599 165.868 17.6268 166.103 15.8789C164.613 15.4419 162.967 15.1638 160.968 15.1638C156.696 15.124 153.56 16.872 152.11 21.0434L151.797 21.0036Z" fill="white"/>
<path d="M191.042 27.36C191.042 31.6903 187.906 33.7163 182.967 33.7163C178.068 33.7163 174.932 31.8094 174.932 27.36C174.932 22.9106 178.107 21.242 182.967 21.242C187.867 21.242 191.042 23.0298 191.042 27.36ZM199.233 27.1614C199.233 18.5406 192.492 14.687 182.967 14.687C173.404 14.687 166.897 18.5406 166.897 27.1614C166.897 35.7424 172.973 40.3508 182.928 40.3508C192.962 40.3508 199.233 35.7424 199.233 27.1614Z" fill="white"/>
</g>
<defs>
<clipPath id="clip0_2_50">
<rect width="200" height="52.4917" fill="white" transform="translate(0 0.570618)"/>
</clipPath>
</defs>
</svg>

