<svg width="25" height="31" viewBox="0 0 25 31" fill="none" xmlns="http://www.w3.org/2000/svg">
<g clip-path="url(#clip0_4_92)">
<path d="M7.59207 25.6689C6.12021 24.3413 5.69056 21.5516 6.30378 19.5306C7.36703 20.8048 8.84026 21.2084 10.3662 21.4363C12.722 21.7879 15.0356 21.6564 17.224 20.5938C17.4744 20.4722 17.7057 20.3104 17.9793 20.1466C18.1846 20.7345 18.238 21.328 18.1663 21.932C17.9919 23.4032 17.2501 24.5396 16.07 25.401C15.5982 25.7456 15.0989 26.0536 14.6116 26.3785C13.1144 27.377 12.7093 28.5479 13.2719 30.2511C13.2853 30.2926 13.2973 30.3341 13.3275 30.4353C12.5631 30.0978 12.0047 29.6063 11.5793 28.96C11.1299 28.2779 10.9161 27.5233 10.9049 26.7069C10.8993 26.3096 10.8993 25.9088 10.8451 25.517C10.7129 24.5621 10.2586 24.1345 9.40285 24.1099C8.52453 24.0846 7.82975 24.6205 7.6455 25.4643C7.63145 25.529 7.61105 25.593 7.59066 25.6682L7.59207 25.6689Z" fill="white"/>
<path d="M0.189819 20.1493C0.189819 20.1493 4.21434 18.1937 8.2501 18.1937L11.2929 8.8001C11.4068 8.34581 11.7395 8.03711 12.115 8.03711C12.4905 8.03711 12.8231 8.34581 12.937 8.8001L15.9798 18.1937C20.7596 18.1937 24.0401 20.1493 24.0401 20.1493C24.0401 20.1493 17.2041 1.57312 17.1908 1.53585C16.9946 0.986638 16.6634 0.632919 16.2168 0.632919H8.01382C7.56728 0.632919 7.24943 0.986638 7.03984 1.53585C7.02507 1.57242 0.189819 20.1493 0.189819 20.1493Z" fill="white"/>
</g>
<defs>
<clipPath id="clip0_4_92">
<rect width="24.3038" height="30" fill="white" transform="translate(0 0.632919)"/>
</clipPath>
</defs>
</svg>

